<?xml version="1.0" encoding="utf-8"?>
<!-- Generator: Adobe Illustrator 16.0.0, SVG Export Plug-In . SVG Version: 6.00 Build 0)  -->
<!DOCTYPE svg PUBLIC "-//W3C//DTD SVG 1.1//EN" "http://www.w3.org/Graphics/SVG/1.1/DTD/svg11.dtd">
<svg version="1.1" id="Layer_2" xmlns="http://www.w3.org/2000/svg" xmlns:xlink="http://www.w3.org/1999/xlink" x="0px" y="0px"
	 width="42px" height="42px" viewBox="28.313 27 42 42" enable-background="new 28.313 27 42 42" xml:space="preserve">
<g id="Layer_4_2_">
	<g>
		<path d="M50.867,37.923c-4.397-1.01-8.856,1.583-10.628,5.6c-3.01,6.815,3.006,14.785,8.016,18.941
			c0.451,0.373,0.962,0.373,1.413,0c4.457-3.697,8.614-9.292,8.768-15.259v-0.002C58.287,42.672,55.31,38.944,50.867,37.923z
			 M48.997,50.588c-1.376,0-2.525-1.15-2.525-2.525c0-1.376,1.149-2.525,2.525-2.525c1.375,0,2.523,1.149,2.523,2.525
			C51.521,49.438,50.372,50.588,48.997,50.588z"/>
	</g>
</g>
<g id="Layer_6_1_">
	<g>
		<path d="M54.749,34.696l-0.005,1.848c2.91,0.318,4.998,2.341,5.252,5.272h1.869C61.525,37.988,58.561,35.097,54.749,34.696z"/>
		<path d="M54.91,31l-0.007,1.842c4.731,0.44,8.489,4.197,8.927,8.929l1.896,0.004C65.207,36.144,60.54,31.518,54.91,31z"/>
	</g>
</g>
</svg>
