<?xml version="1.0" encoding="utf-8"?>
<!-- Generator: Adobe Illustrator 16.0.0, SVG Export Plug-In . SVG Version: 6.00 Build 0)  -->
<!DOCTYPE svg PUBLIC "-//W3C//DTD SVG 1.1//EN" "http://www.w3.org/Graphics/SVG/1.1/DTD/svg11.dtd">
<svg version="1.1" id="Layer_2" xmlns="http://www.w3.org/2000/svg" xmlns:xlink="http://www.w3.org/1999/xlink" x="0px" y="0px"
	 width="42px" height="42px" viewBox="0 0 42 42" enable-background="new 0 0 42 42" xml:space="preserve">
<g id="Layer_6_1_">
	<g>
		<path fill="#191F34" d="M23.581,8.824l-0.005,1.849c2.91,0.317,4.998,2.341,5.252,5.272h1.869
			C30.357,12.117,27.393,9.226,23.581,8.824z"/>
		<path fill="#191F34" d="M23.742,5.128L23.734,6.97c4.732,0.44,8.49,4.197,8.928,8.93l1.896,0.004
			C34.039,10.273,29.373,5.646,23.742,5.128z"/>
	</g>
</g>
<g id="Layer_4_2_">
	<g>
		<path fill="#191F34" d="M19.699,12.051c-4.396-1.01-8.855,1.583-10.629,5.601c-3.01,6.815,3.007,14.786,8.017,18.94
			c0.451,0.373,0.962,0.373,1.413,0c4.457-3.695,8.615-9.291,8.768-15.258v-0.002C27.119,16.8,24.143,13.072,19.699,12.051z
			 M17.829,24.717c-1.376,0-2.524-1.15-2.524-2.525c0-1.375,1.148-2.525,2.524-2.525c1.375,0,2.522,1.149,2.522,2.525
			C20.354,23.566,19.204,24.717,17.829,24.717z"/>
	</g>
</g>
</svg>
