<?xml version="1.0" encoding="utf-8"?>
<!-- Generator: Adobe Illustrator 16.0.0, SVG Export Plug-In . SVG Version: 6.00 Build 0)  -->
<!DOCTYPE svg PUBLIC "-//W3C//DTD SVG 1.1//EN" "http://www.w3.org/Graphics/SVG/1.1/DTD/svg11.dtd">
<svg version="1.1" id="Layer_3" xmlns="http://www.w3.org/2000/svg" xmlns:xlink="http://www.w3.org/1999/xlink" x="0px" y="0px"
	 width="80px" height="80px" viewBox="10 10 80 80" enable-background="new 10 10 80 80" xml:space="preserve">
<path fill="#002E3F" d="M27.851,52.852h-2.465v-4.271h2.465V37.117h-5.662c-1.638,4.367-2.866,9.178-3.718,14.419
	c-0.837,5.246-1.26,10.113-1.26,14.605c0,0.862-0.111,1.286-0.315,1.269c-0.218-0.017-0.57,0.018-1.064,0.106
	c-0.442,1.257-0.442,2.511,0,3.778l5.938,2.289c0.409,3.745,2.963,6.672,6.082,6.816v-4.194h0c-1.376,0-2.493-1.38-2.493-3.077
	c0-1.694,1.117-3.069,2.493-3.069h0V52.852z M27.851,48.581h2.678V42.44h1.973v-5.324H27.85L27.851,48.581L27.851,48.581z
	 M32.501,59.126h-1.972v-6.272h-2.679v17.208c1.374,0,2.492,1.377,2.492,3.071c0,1.696-1.118,3.079-2.492,3.079v4.19
	c0.08,0.004,0.163,0.006,0.241,0.006c1.711,0,3.263-0.837,4.409-2.194V59.126z M34.535,42.44v6.141h5.087v4.271h-5.087v6.272h-2.034
	v19.089c0.97-1.143,1.647-2.653,1.883-4.351h31.763v-24.46h-5.737V39.353h5.737v-2.131l-0.616-0.106l-1.116-2.708h-2.222
	l-1.229,2.708H32.501v5.324L34.535,42.44L34.535,42.44z M73.071,46.053v24.009c-1.378,0-2.496,1.377-2.496,3.071
	c0,1.696,1.118,3.079,2.496,3.079v4.194c-3.062-0.121-5.588-2.918-6.09-6.544h-0.835v-24.46h5.744l-3.303-10.049h-2.441v-2.131
	l3.52,0.586L73.071,46.053z M73.071,80.404v-4.193c1.367,0,2.486-1.383,2.486-3.079c0-1.695-1.119-3.071-2.486-3.071V46.053
	l1.318,3.21L84.5,54.87v12.646l-1.786,0.872v3.405c-0.546,0.174-1.246,0.47-2.109,0.844c-0.366,0.167-0.688,0.332-0.974,0.506
	c-0.253,4.056-3.012,7.263-6.357,7.263C73.207,80.406,73.141,80.406,73.071,80.404"/>
</svg>
