<?xml version="1.0" encoding="utf-8"?>
<!-- Generator: Adobe Illustrator 16.0.0, SVG Export Plug-In . SVG Version: 6.00 Build 0)  -->
<!DOCTYPE svg PUBLIC "-//W3C//DTD SVG 1.1//EN" "http://www.w3.org/Graphics/SVG/1.1/DTD/svg11.dtd">
<svg version="1.1" id="Layer_1" xmlns="http://www.w3.org/2000/svg" xmlns:xlink="http://www.w3.org/1999/xlink" x="0px" y="0px"
	 width="360px" height="360px" viewBox="51.333 73.833 360 360" enable-background="new 51.333 73.833 360 360"
	 xml:space="preserve">
<g id="Layer_4">
	<g>
		<path fill="#002E3F" d="M241.867,132.225c-26.484-6.081-53.328,9.528-64.003,33.714c-18.124,41.048,18.099,89.023,48.262,114.041
			c2.709,2.25,5.799,2.25,8.512,0c26.839-22.262,51.869-55.93,52.79-91.875v-0.003C286.544,160.821,268.613,138.37,241.867,132.225z
			 M230.6,208.475c-8.286,0-15.2-6.914-15.2-15.2c0-8.286,6.915-15.2,15.2-15.2c8.284,0,15.2,6.914,15.2,15.2
			C245.798,201.561,238.884,208.475,230.6,208.475z"/>
	</g>
</g>
<g id="Layer_5_copy">
	<g id="Capa_8_2_">
		<path fill="#002E3F" d="M331.146,254.542v-9h-189v9h45v36h-45l0.078,12.25h3.735l-0.112,1.938l-3.701,0.063v12.75h45l0.042,45.027
			h-45v9h45v45h9v-45h81v-54l53.958-0.027V291.33l-54-0.787v-36H331.146L331.146,254.542z M182.568,304.427l-21.472,0.105
			l0.077-1.691l21.475-0.111L182.568,304.427z M199.818,302.64l19.46-0.092l-0.07,1.701l-19.457,0.094L199.818,302.64z
			 M268.333,362.667h-72l-0.042-45.027h72L268.333,362.667z M234.38,304.171l0.078-1.703l21.472-0.104l-0.079,1.703L234.38,304.171z
			 M268.292,290.64h-72v-36h72V290.64z M307.746,302.107l21.471-0.105l-0.073,1.705l-21.46,0.105L307.746,302.107z M292.574,302.185
			l-0.076,1.701l-18.359,0.098l0.072-1.707L292.574,302.185z"/>
	</g>
</g>
<g id="Layer_6">
	<g>
		<path fill="#002E3F" d="M265.24,112.793l-0.031,11.124c17.523,1.918,30.094,14.104,31.625,31.75h11.25
			C306.041,132.61,288.184,115.21,265.24,112.793z"/>
		<path fill="#002E3F" d="M266.208,90.542l-0.043,11.085c28.48,2.654,51.106,25.271,53.744,53.759l11.424,0.031
			C328.203,121.51,300.106,93.655,266.208,90.542z"/>
	</g>
</g>
</svg>
