<?xml version="1.0" encoding="utf-8"?>
<!-- Generator: Adobe Illustrator 16.0.0, SVG Export Plug-In . SVG Version: 6.00 Build 0)  -->
<!DOCTYPE svg PUBLIC "-//W3C//DTD SVG 1.1//EN" "http://www.w3.org/Graphics/SVG/1.1/DTD/svg11.dtd">
<svg version="1.1" id="Layer_1" xmlns="http://www.w3.org/2000/svg" xmlns:xlink="http://www.w3.org/1999/xlink" x="0px" y="0px"
	 width="360px" height="360px" viewBox="0 0 360 360" enable-background="new 0 0 360 360" xml:space="preserve">
<g id="Layer_4">
	<g>
		<path fill="#002E3F" d="M185.867,58.655c-26.484-6.081-53.328,9.528-64.003,33.714c-18.124,41.047,18.099,89.023,48.262,114.042
			c2.709,2.25,5.799,2.25,8.513,0c26.838-22.263,51.868-55.931,52.789-91.875v-0.004C230.544,87.25,212.613,64.8,185.867,58.655z
			 M174.6,134.904c-8.285,0-15.199-6.914-15.199-15.199c0-8.286,6.914-15.2,15.199-15.2c8.284,0,15.2,6.914,15.2,15.2
			C189.798,127.99,182.884,134.904,174.6,134.904z"/>
	</g>
</g>
<g id="Layer_5_copy">
	<g id="Capa_8_2_">
		<path fill="#002E3F" d="M275.146,180.972v-9h-189v9h45v36h-45l0.078,12.25h3.735l-0.112,1.938l-3.701,0.063v12.75h45L131.188,289
			h-45v9h45v45h9v-45h81v-54l53.959-0.027V217.76l-54-0.787v-36L275.146,180.972L275.146,180.972z M126.568,230.856l-21.472,0.105
			l0.077-1.691l21.476-0.11L126.568,230.856z M143.818,229.07l19.459-0.093l-0.069,1.701l-19.457,0.094L143.818,229.07z
			 M212.333,289.097h-72l-0.042-45.026h72L212.333,289.097z M178.38,230.601l0.078-1.703l21.472-0.104l-0.078,1.702L178.38,230.601z
			 M212.292,217.07h-72v-36h72V217.07z M251.746,228.537l21.471-0.105l-0.073,1.705l-21.46,0.105L251.746,228.537z M236.574,228.615
			l-0.076,1.7l-18.359,0.099l0.072-1.707L236.574,228.615z"/>
	</g>
</g>
<g id="Layer_6">
	<g>
		<path fill="#002E3F" d="M209.24,39.223l-0.031,11.124c17.523,1.918,30.094,14.104,31.625,31.75h11.25
			C250.041,59.04,232.184,41.64,209.24,39.223z"/>
		<path fill="#002E3F" d="M210.208,16.972l-0.043,11.085c28.479,2.654,51.106,25.271,53.744,53.759l11.424,0.031
			C272.203,47.939,244.106,20.085,210.208,16.972z"/>
	</g>
</g>
</svg>
