<?xml version="1.0" encoding="utf-8"?>
<!-- Generator: Adobe Illustrator 16.0.0, SVG Export Plug-In . SVG Version: 6.00 Build 0)  -->
<!DOCTYPE svg PUBLIC "-//W3C//DTD SVG 1.1//EN" "http://www.w3.org/Graphics/SVG/1.1/DTD/svg11.dtd">
<svg version="1.1" id="Layer_3" xmlns="http://www.w3.org/2000/svg" xmlns:xlink="http://www.w3.org/1999/xlink" x="0px" y="0px"
	 width="100px" height="100px" viewBox="0 0 100 100" enable-background="new 0 0 100 100" xml:space="preserve">
<g>
	<path stroke="#000000" stroke-width="0.75" stroke-miterlimit="10" d="M81.537,33.773c-0.658,0-1.096,0.437-1.096,1.094v37.539
		c0,6.348-5.144,11.379-11.492,11.379H31.415c-6.349,0-11.492-5.143-11.492-11.488V34.868c0-6.348,5.144-11.491,11.492-11.491H68.95
		c1.753,0,3.396,0.328,4.926,1.093c0.548,0.219,1.203,0,1.424-0.548c0.22-0.545,0-1.203-0.547-1.421
		c-1.858-0.875-3.831-1.314-5.803-1.314H31.415c-7.553,0-13.682,6.129-13.682,13.681v37.539c0,7.553,6.129,13.68,13.682,13.68H68.95
		c7.553,0,13.683-6.127,13.683-13.68V34.868C82.632,34.21,82.084,33.773,81.537,33.773z"/>
	<path stroke="#000000" stroke-width="0.75" stroke-miterlimit="10" d="M91.168,9.258c-0.546-0.329-1.205-0.219-1.534,0.328
		L51.33,68.576L29.007,45.157c-0.438-0.439-1.096-0.439-1.533,0c-0.438,0.436-0.438,1.092,0,1.529l23.312,24.408
		c0.218,0.217,0.545,0.324,0.766,0.324h0.108c0.33,0,0.656-0.215,0.767-0.545l39.072-60.191
		C91.825,10.243,91.717,9.586,91.168,9.258z"/>
</g>
</svg>
