<?xml version="1.0" encoding="utf-8"?>
<!-- Generator: Adobe Illustrator 16.0.0, SVG Export Plug-In . SVG Version: 6.00 Build 0)  -->
<!DOCTYPE svg PUBLIC "-//W3C//DTD SVG 1.1//EN" "http://www.w3.org/Graphics/SVG/1.1/DTD/svg11.dtd">
<svg version="1.1" xmlns="http://www.w3.org/2000/svg" xmlns:xlink="http://www.w3.org/1999/xlink" x="0px" y="0px" width="100px"
	 height="100px" viewBox="0 0 100 100" enable-background="new 0 0 100 100" xml:space="preserve">
<g id="Clock-Icon">
	<path id="Hands" fill="#5F5F5F" d="M59.909,67.024c-0.718,0-1.42-0.347-1.849-0.986l-9.908-14.801
		c-0.245-0.366-0.375-0.796-0.375-1.236V25.309c0-1.228,0.995-2.222,2.223-2.222c1.227,0,2.222,0.995,2.222,2.222v24.016
		l9.532,14.24c0.683,1.021,0.409,2.4-0.611,3.083C60.764,66.902,60.334,67.024,59.909,67.024z"/>
	<path id="Outline" fill="#5F5F5F" d="M50,16.667c18.379,0,33.332,14.953,33.332,33.333S68.379,83.333,49.997,83.333
		C31.618,83.333,16.666,68.38,16.666,50S31.62,16.667,50,16.667 M50,12.963c-20.456,0-37.038,16.583-37.038,37.037
		c0,20.455,16.582,37.038,37.038,37.037c20.453,0,37.037-16.581,37.037-37.037C87.037,29.544,70.453,12.963,50,12.963L50,12.963z"/>
</g>
<g id="Layer_2">
	<path d="M50,14.087c-16.663,0-30.213,13.553-30.213,30.217c0,21.439,27.799,40.432,28.981,41.233
		c0.374,0.248,0.801,0.375,1.231,0.375c0.43,0,0.856-0.127,1.23-0.375c1.185-0.802,28.981-19.794,28.981-41.233
		C80.212,27.641,66.66,14.087,50,14.087z M50,81.012c-5.293-3.873-25.816-19.962-25.816-36.707c0-14.235,11.58-25.817,25.816-25.817
		c14.235,0,25.818,11.581,25.818,25.817C75.818,61.022,55.288,77.138,50,81.012z M50,36.93c-4.071,0-7.373,3.301-7.373,7.373
		c0,4.071,3.302,7.372,7.373,7.372c4.069,0,7.371-3.301,7.371-7.372C57.371,40.231,54.069,36.93,50,36.93z"/>
</g>
</svg>
