<?xml version="1.0" encoding="utf-8"?>
<!-- Generator: Adobe Illustrator 16.0.0, SVG Export Plug-In . SVG Version: 6.00 Build 0)  -->
<!DOCTYPE svg PUBLIC "-//W3C//DTD SVG 1.1//EN" "http://www.w3.org/Graphics/SVG/1.1/DTD/svg11.dtd">
<svg version="1.1" id="Layer_4" xmlns="http://www.w3.org/2000/svg" xmlns:xlink="http://www.w3.org/1999/xlink" x="0px" y="0px"
	 width="80px" height="80px" viewBox="0 0 80 80" enable-background="new 0 0 80 80" xml:space="preserve">
<circle fill="#FFFFFF" cx="40.001" cy="28.494" r="16.859"/>
<path fill="#999999" d="M59.624,9.058C48.788-1.778,31.281-1.689,20.446,9.146C9.61,19.98,11.083,36.917,20.368,49.361
	l19.578,29.664l19.619-29.818C68.167,37.333,70.459,19.893,59.624,9.058z M40.021,45.248c-9.218,0-16.692-7.474-16.692-16.693
	c0-9.219,7.474-16.692,16.692-16.692c9.219,0,16.691,7.473,16.691,16.692C56.711,37.774,49.238,45.248,40.021,45.248z"/>
<g>
	<path fill="#BE4749" d="M41.676,18.753v7.983h7.654v3.442h-7.654v8.057h-3.588v-8.057h-7.655v-3.442h7.655v-7.983H41.676z"/>
</g>
</svg>
