<?xml version="1.0" encoding="utf-8"?>
<!-- Generator: Adobe Illustrator 16.0.0, SVG Export Plug-In . SVG Version: 6.00 Build 0)  -->
<!DOCTYPE svg PUBLIC "-//W3C//DTD SVG 1.1//EN" "http://www.w3.org/Graphics/SVG/1.1/DTD/svg11.dtd">
<svg version="1.1" id="Layer_2" xmlns="http://www.w3.org/2000/svg" xmlns:xlink="http://www.w3.org/1999/xlink" x="0px" y="0px"
	 width="100px" height="100px" viewBox="0 0 100 100" enable-background="new 0 0 100 100" xml:space="preserve">
<path d="M50,12.292c-17.496,0-31.724,14.23-31.724,31.728c0,22.511,29.189,42.453,30.431,43.295c0.393,0.26,0.841,0.394,1.293,0.394
	c0.451,0,0.899-0.134,1.292-0.394c1.244-0.843,30.431-20.784,30.431-43.295C81.723,26.522,67.493,12.292,50,12.292z M50,82.563
	c-5.558-4.067-27.107-20.96-27.107-38.542c0-14.947,12.159-27.108,27.107-27.108c14.947,0,27.109,12.16,27.109,27.108
	C77.109,61.573,55.553,78.494,50,82.563z M50,36.277c-4.274,0-7.741,3.466-7.741,7.742c0,4.274,3.467,7.74,7.741,7.74
	c4.272,0,7.739-3.466,7.739-7.74C57.739,39.743,54.272,36.277,50,36.277z"/>
</svg>
