<?xml version="1.0" encoding="utf-8"?>
<!-- Generator: Adobe Illustrator 16.0.0, SVG Export Plug-In . SVG Version: 6.00 Build 0)  -->
<!DOCTYPE svg PUBLIC "-//W3C//DTD SVG 1.1//EN" "http://www.w3.org/Graphics/SVG/1.1/DTD/svg11.dtd">
<svg version="1.1" id="Layer_3" xmlns="http://www.w3.org/2000/svg" xmlns:xlink="http://www.w3.org/1999/xlink" x="0px" y="0px"
	 width="42px" height="42px" viewBox="28.313 27 42 42" enable-background="new 28.313 27 42 42" xml:space="preserve">
<g id="Layer_4_3_">
	<g>
		<path d="M50.867,29.537c-4.396-1.009-8.856,1.582-10.629,5.601c-3.01,6.815,3.006,14.783,8.016,18.94
			c0.449,0.373,0.963,0.373,1.414,0c4.457-3.697,8.613-9.291,8.768-15.26l0,0C58.288,34.289,55.311,30.561,50.867,29.537z
			 M48.996,42.202c-1.375,0-2.523-1.149-2.523-2.525c0-1.378,1.148-2.524,2.523-2.524c1.377,0,2.525,1.146,2.525,2.524
			C51.521,41.053,50.373,42.202,48.996,42.202z"/>
	</g>
</g>
<g id="Layer_5_copy_1_">
	<g id="Capa_8_1_">
		<path d="M61.536,51.953v-0.893H38.463v0.893h5.492v3.582h-5.492l0.01,1.215h0.455l-0.014,0.195l-0.451,0.006v1.266h5.492
			l0.007,4.477h-5.495v0.895h5.495v4.473h1.099v-4.473h9.889V58.22l6.587-0.003v-2.604l-6.593-0.077v-3.582H61.536L61.536,51.953z
			 M43.397,56.912l-2.622,0.012l0.01-0.165l2.623-0.013L43.397,56.912z M45.504,56.737l2.375-0.01l-0.009,0.169l-2.374,0.009
			L45.504,56.737z M53.869,62.705h-8.791l-0.005-4.479h8.79L53.869,62.705z M49.723,56.888l0.01-0.172l2.621-0.006l-0.008,0.169
			L49.723,56.888z M53.863,55.543h-8.79v-3.578h8.79V55.543z M58.68,56.681l2.621-0.008l-0.01,0.171l-2.619,0.01L58.68,56.681z
			 M56.828,56.692l-0.01,0.168l-2.242,0.007l0.01-0.169L56.828,56.692z"/>
	</g>
</g>
</svg>
