<?xml version="1.0" encoding="utf-8"?>
<!-- Generator: Adobe Illustrator 16.0.0, SVG Export Plug-In . SVG Version: 6.00 Build 0)  -->
<!DOCTYPE svg PUBLIC "-//W3C//DTD SVG 1.1//EN" "http://www.w3.org/Graphics/SVG/1.1/DTD/svg11.dtd">
<svg version="1.1" id="police_x5F_hat" xmlns="http://www.w3.org/2000/svg" xmlns:xlink="http://www.w3.org/1999/xlink" x="0px"
	 y="0px" width="80px" height="80px" viewBox="10 10 80 80" enable-background="new 10 10 80 80" xml:space="preserve">
<path fill="#002E3F" d="M82.444,38.653c-0.37,2.296-4.147,5.926-6,6.74c0,0,1.407,0.37-0.147,2.074v0.074
	c0,0-13.11,7.407-26.297,7.407c-13.111,0-26.296-7.407-26.296-7.407l0,0c-1.481-1.704-0.148-2.074-0.148-2.074
	c-1.778-0.814-5.63-4.519-6-6.741c-0.371-2.296-0.519-4.296,5.259-7.481c5.704-3.185,7.407-4.147,16.444-8.073
	c8.815-3.778,10.667-3.408,10.667-3.408s1.927-0.37,10.74,3.408c9.037,3.926,10.741,4.889,16.445,8.073
	C82.963,34.431,82.814,36.431,82.444,38.653z M56.223,32.542c-2.889,2.889-6.148-1.334-6.148-1.334s-3.259,4.297-6.148,1.408
	l-2.37,4c0,0,2.592,0.814,1.481,4c-1.185,3.185-0.963,6.37,0,7.703C44,49.653,47.186,51.949,48,52.468
	c0.815,0.518,1.703,1.186,2,1.555c0.297-0.297,1.187-1.036,2.074-1.629c0.814-0.52,4.074-2.89,4.963-4.148
	c0.963-1.333,1.186-4.519,0-7.703c-1.186-3.186,1.481-4,1.481-4L56.223,32.542z M24.296,57.136v-0.224
	c0,0,12.889,7.407,25.778,7.407s25.852-7.407,25.852-7.407v0.147c0,0,1.187,0.371,0,1.703c0,0,5.853,6,1.334,10.52
	c-4.52,4.52-16.223,10.814-27.186,10.963l0,0c-10.963-0.223-22.519-6.37-27.111-10.889c-4.519-4.52,1.333-10.52,1.333-10.52
	C23.111,57.505,24.296,57.136,24.296,57.136z"/>
</svg>
