<?xml version="1.0" encoding="utf-8"?>
<!-- Generator: Adobe Illustrator 16.0.0, SVG Export Plug-In . SVG Version: 6.00 Build 0)  -->
<!DOCTYPE svg PUBLIC "-//W3C//DTD SVG 1.1//EN" "http://www.w3.org/Graphics/SVG/1.1/DTD/svg11.dtd">
<svg version="1.1" id="flame" xmlns="http://www.w3.org/2000/svg" xmlns:xlink="http://www.w3.org/1999/xlink" x="0px" y="0px"
	 width="80px" height="80px" viewBox="0 0 80 80" enable-background="new 0 0 80 80" xml:space="preserve">
<path fill="#002E3F" d="M52.211,57.421c-3.705,2.596-8.033,3.9-12.464,3.838c-0.584-0.008-1.166-0.035-1.742-0.088
	c-0.233-0.021-0.47-0.061-0.705-0.092c-0.451-0.057-0.901-0.117-1.346-0.205c-0.272-0.053-0.536-0.119-0.803-0.184
	c-0.434-0.1-0.863-0.201-1.285-0.328c-0.203-0.061-0.399-0.135-0.601-0.201c-0.487-0.162-0.971-0.334-1.442-0.531
	c-0.108-0.043-0.21-0.09-0.317-0.139c-0.552-0.242-1.094-0.5-1.621-0.785c-0.024-0.014-0.046-0.025-0.07-0.039
	c-1.784-0.975-3.414-2.195-4.842-3.623c-0.024-0.025-0.046-0.053-0.07-0.074c-0.441-0.447-0.866-0.916-1.269-1.4
	c-0.086-0.102-0.166-0.215-0.251-0.32c-2.912-3.641-4.667-8.246-4.667-13.262h5.601l-8.962-13.44L6.395,39.989h5.601
	c0,5.893,1.837,11.355,4.958,15.871c0.039,0.066,0.065,0.131,0.109,0.191c0.325,0.463,0.683,0.889,1.028,1.326
	c0.131,0.166,0.25,0.338,0.385,0.498c0.512,0.617,1.055,1.205,1.611,1.773c0.052,0.053,0.104,0.109,0.158,0.16
	c1.873,1.879,3.986,3.457,6.29,4.719c0.063,0.035,0.123,0.074,0.186,0.105c0.665,0.357,1.344,0.684,2.04,0.984
	c0.171,0.074,0.338,0.156,0.511,0.23c0.596,0.246,1.201,0.461,1.812,0.66c0.289,0.102,0.578,0.203,0.871,0.289
	c0.532,0.162,1.081,0.295,1.631,0.426c0.366,0.082,0.729,0.176,1.101,0.25c0.154,0.029,0.301,0.074,0.455,0.1
	c0.52,0.092,1.04,0.145,1.558,0.205c0.188,0.023,0.372,0.059,0.563,0.076c0.933,0.092,1.865,0.152,2.794,0.152
	c5.696,0,11.248-1.742,16.013-5.08c1.52-1.064,1.891-3.158,0.822-4.678C55.826,56.726,53.727,56.358,52.211,57.421z"/>
<path fill="#002E3F" d="M68.008,39.989c-0.004-5.873-1.828-11.325-4.935-15.832c-0.044-0.075-0.074-0.153-0.127-0.227
	c-0.386-0.549-0.806-1.063-1.227-1.58c-0.047-0.061-0.092-0.127-0.144-0.188c-2.841-3.448-6.412-6.112-10.454-7.855
	c-0.113-0.047-0.224-0.1-0.333-0.148c-0.647-0.267-1.308-0.503-1.973-0.723c-0.241-0.081-0.478-0.166-0.718-0.24
	c-0.582-0.175-1.169-0.315-1.765-0.455c-0.328-0.074-0.651-0.158-0.984-0.224c-0.161-0.03-0.319-0.079-0.479-0.109
	c-0.443-0.077-0.885-0.11-1.332-0.167c-0.306-0.039-0.608-0.088-0.914-0.119c-0.744-0.07-1.484-0.1-2.224-0.112
	c-0.136-0.001-0.266-0.019-0.397-0.019c-0.026,0-0.049,0.006-0.073,0.009c-5.686,0.003-11.23,1.719-15.989,5.054
	c-1.521,1.063-1.89,3.16-0.823,4.68c1.063,1.52,3.158,1.89,4.679,0.824c3.675-2.573,7.966-3.878,12.363-3.837
	c0.631,0.003,1.253,0.035,1.868,0.094c0.188,0.019,0.376,0.047,0.564,0.072c0.508,0.061,1.012,0.131,1.501,0.227
	c0.218,0.044,0.433,0.101,0.647,0.149c0.486,0.11,0.972,0.228,1.445,0.372c0.146,0.044,0.296,0.1,0.444,0.148
	c0.543,0.177,1.077,0.368,1.598,0.587c0.052,0.022,0.104,0.049,0.157,0.07c3.133,1.348,5.882,3.422,8.024,6.017
	c0.015,0.016,0.026,0.035,0.04,0.049c3.015,3.673,4.832,8.368,4.835,13.48h-5.604l8.966,13.441l8.96-13.441H68.008z"/>
</svg>
