<?xml version="1.0" encoding="utf-8"?>
<!-- Generator: Adobe Illustrator 16.0.0, SVG Export Plug-In . SVG Version: 6.00 Build 0)  -->
<!DOCTYPE svg PUBLIC "-//W3C//DTD SVG 1.1//EN" "http://www.w3.org/Graphics/SVG/1.1/DTD/svg11.dtd">
<svg version="1.1" id="Layer_1" xmlns="http://www.w3.org/2000/svg" xmlns:xlink="http://www.w3.org/1999/xlink" x="0px" y="0px"
	 width="100px" height="100px" viewBox="0 0 100 100" enable-background="new 0 0 100 100" xml:space="preserve">
<path fill="#5F5F5F" d="M53.341,36.244c-0.579-0.579-1.517-0.579-2.096,0c-0.578,0.579-0.578,1.517,0,2.095l10.181,10.18h-25.5
	c-0.818,0-1.481,0.664-1.481,1.481c0,0.818,0.664,1.481,1.481,1.481h25.12l-9.801,9.801c-0.578,0.579-0.578,1.517,0,2.096
	c0.29,0.289,0.668,0.433,1.048,0.433s0.758-0.144,1.048-0.433l12.52-12.521c0.578-0.578,0.578-1.516,0-2.095L53.341,36.244z"/>
<path fill="#5F5F5F" d="M50.001,18.889c-16.865,0-31.112,14.247-31.112,31.111s14.247,31.111,31.112,31.111
	c16.863,0,31.11-14.247,31.11-31.111S66.864,18.889,50.001,18.889z M50.001,78.148c-15.258,0-28.149-12.891-28.149-28.148
	s12.891-28.148,28.149-28.148c15.258,0,28.147,12.89,28.147,28.148S65.259,78.148,50.001,78.148z"/>
</svg>
