<?xml version="1.0" encoding="utf-8"?>
<!-- Generator: Adobe Illustrator 16.0.0, SVG Export Plug-In . SVG Version: 6.00 Build 0)  -->
<!DOCTYPE svg PUBLIC "-//W3C//DTD SVG 1.1//EN" "http://www.w3.org/Graphics/SVG/1.1/DTD/svg11.dtd">
<svg version="1.1" id="Layer_1" xmlns="http://www.w3.org/2000/svg" xmlns:xlink="http://www.w3.org/1999/xlink" x="0px" y="0px"
	 width="500px" height="100px" viewBox="0 0 500 100" enable-background="new 0 0 500 100" xml:space="preserve">
<g>
	<g>
		<path fill="#131724" d="M57.667,10.006c3.391,0,6.362,0.459,8.916,1.377c2.553,0.918,4.677,2.14,6.373,3.663
			c1.695,1.524,2.972,3.275,3.83,5.252c0.857,1.978,1.287,4.026,1.287,6.146c0,1.978-0.384,3.936-1.15,5.873
			c-0.767,1.938-1.922,3.724-3.466,5.358s-3.492,3.048-5.843,4.238c-2.352,1.191-5.111,2.028-8.28,2.513
			c-0.061,1.474-0.111,2.826-0.151,4.057c-0.021,0.525-0.041,1.05-0.061,1.574c-0.021,0.525-0.036,1.004-0.045,1.438
			c-0.01,0.434-0.021,0.813-0.03,1.135c-0.01,0.324-0.015,0.545-0.015,0.666c-0.041,1.414-0.207,2.882-0.5,4.405
			c-0.293,1.524-0.717,3.013-1.271,4.466c-0.555,1.453-1.231,2.83-2.028,4.132c-0.797,1.302-1.726,2.442-2.785,3.421
			s-2.246,1.756-3.557,2.331c-1.312,0.575-2.745,0.862-4.299,0.862c-1.655,0-3.133-0.429-4.435-1.286
			c-1.302-0.858-2.442-2.013-3.421-3.466c-0.979-1.453-1.807-3.129-2.482-5.025c-0.676-1.897-1.226-3.881-1.65-5.949
			s-0.732-4.152-0.923-6.251c-0.192-2.099-0.288-4.077-0.288-5.934c0-3.188,0.292-6.267,0.878-9.233
			c0.585-2.967,1.423-5.747,2.513-8.34c1.09-2.593,2.412-4.959,3.966-7.099c1.554-2.139,3.305-3.976,5.252-5.51
			c1.947-1.534,4.066-2.719,6.357-3.557C52.647,10.425,55.084,10.006,57.667,10.006z M39.503,44.215
			c0,0.828,0.005,1.943,0.015,3.345c0.01,1.403,0.065,2.901,0.167,4.496c0.101,1.594,0.262,3.209,0.484,4.844
			c0.222,1.635,0.55,3.113,0.984,4.435c0.434,1.322,0.979,2.401,1.635,3.239c0.656,0.838,1.478,1.256,2.467,1.256
			c1.029,0,1.907-0.357,2.634-1.074s1.332-1.645,1.816-2.785s0.868-2.432,1.15-3.875c0.282-1.443,0.494-2.891,0.636-4.344
			c0.141-1.453,0.232-2.841,0.272-4.163c0.04-1.322,0.061-2.447,0.061-3.375v-1.423c-1.675-0.666-2.992-1.251-3.951-1.756
			c-0.959-0.504-1.68-0.989-2.165-1.453c-0.484-0.464-0.792-0.954-0.923-1.468c-0.131-0.515-0.197-1.115-0.197-1.801
			c0-0.363,0.01-0.721,0.03-1.075c0.02-0.353,0.076-0.666,0.167-0.938s0.222-0.494,0.394-0.666c0.171-0.171,0.409-0.257,0.711-0.257
			c0.202,0,0.388,0.041,0.56,0.121c0.171,0.081,0.388,0.192,0.651,0.333c0.666,0.363,1.271,0.661,1.816,0.893
			c0.545,0.232,1.009,0.419,1.393,0.56c0.444,0.162,0.848,0.283,1.211,0.363c0-0.262,0.005-0.782,0.015-1.559
			c0.01-0.777,0.07-1.665,0.182-2.664c0.111-0.999,0.297-2.043,0.56-3.133c0.262-1.09,0.646-2.089,1.15-2.997
			c0.504-0.908,1.16-1.66,1.968-2.255c0.807-0.595,1.806-0.893,2.997-0.893c0.363,0,0.736,0.036,1.12,0.106
			c0.383,0.071,0.731,0.202,1.044,0.394c0.313,0.192,0.575,0.449,0.787,0.772c0.212,0.323,0.318,0.737,0.318,1.241
			c0,0.142-0.005,0.237-0.015,0.288c-0.01,0.051-0.015,0.116-0.015,0.197l-1.847,7.78l-0.272,2.392
			c1.978-0.303,3.683-0.787,5.116-1.453c1.433-0.666,2.619-1.453,3.557-2.361s1.635-1.907,2.089-2.997s0.681-2.21,0.681-3.36
			c0-1.13-0.217-2.286-0.651-3.466c-0.434-1.181-1.186-2.255-2.255-3.224c-1.07-0.969-2.503-1.766-4.299-2.392
			c-1.796-0.625-4.057-0.938-6.781-0.938c-2.039,0-3.885,0.389-5.54,1.166c-1.655,0.777-3.128,1.832-4.42,3.164
			c-1.292,1.332-2.412,2.886-3.36,4.662c-0.949,1.776-1.731,3.668-2.346,5.676c-0.616,2.008-1.07,4.077-1.362,6.206
			C39.649,40.124,39.503,42.197,39.503,44.215z"/>
		<path fill="#131724" d="M86.609,46.365c0.827-1.09,1.756-2.26,2.785-3.512c1.029-1.251,2.099-2.417,3.209-3.497
			c1.11-1.08,2.215-1.978,3.315-2.694c1.1-0.716,2.134-1.075,3.103-1.075c0.242,0,0.515,0.045,0.817,0.136s0.59,0.257,0.863,0.5
			s0.5,0.581,0.681,1.014c0.182,0.434,0.272,0.994,0.272,1.68c0,1.373-0.192,2.709-0.575,4.011
			c-0.384,1.302-0.802,2.604-1.256,3.905s-0.868,2.629-1.241,3.981c-0.374,1.353-0.56,2.765-0.56,4.238
			c0,0.809,0.121,1.453,0.363,1.938s0.555,0.727,0.938,0.727c0.484,0,0.999-0.1,1.544-0.303c0.545-0.201,1.09-0.463,1.635-0.787
			c0.545-0.322,1.08-0.69,1.604-1.104c0.524-0.413,1.019-0.843,1.483-1.286c1.11-1.029,2.2-2.2,3.27-3.512l0.515,8.053
			c-0.363,0.282-0.823,0.635-1.377,1.059c-0.555,0.424-1.171,0.873-1.847,1.348c-0.676,0.475-1.408,0.953-2.195,1.438
			s-1.58,0.914-2.376,1.287c-0.797,0.373-1.595,0.682-2.392,0.924c-0.797,0.242-1.559,0.363-2.286,0.363
			c-1.11,0-2.074-0.298-2.891-0.894c-0.817-0.595-1.489-1.353-2.013-2.271c-0.525-0.918-0.918-1.922-1.181-3.012
			c-0.263-1.09-0.394-2.119-0.394-3.088c0-0.646,0.085-1.367,0.257-2.165c0.171-0.797,0.383-1.599,0.636-2.407
			c0.252-0.807,0.535-1.594,0.848-2.361c0.313-0.767,0.605-1.453,0.878-2.059s0.509-1.1,0.711-1.483
			c0.202-0.383,0.333-0.605,0.394-0.666L93.511,44.7c-0.343,0.222-0.923,0.787-1.741,1.695S90.03,48.449,89,49.831
			c-1.029,1.383-2.094,2.937-3.194,4.662c-1.1,1.726-2.094,3.507-2.982,5.343c-0.444,0.908-0.808,1.701-1.09,2.377
			c-0.283,0.676-0.56,1.231-0.833,1.665c-0.272,0.435-0.57,0.763-0.893,0.983c-0.323,0.223-0.737,0.334-1.241,0.334
			c-0.666,0-1.191-0.191-1.574-0.576c-0.384-0.383-0.676-0.893-0.878-1.528c-0.202-0.636-0.333-1.356-0.394-2.165
			c-0.061-0.807-0.091-1.635-0.091-2.482c0-1.352,0.015-3.123,0.045-5.313s0.126-4.617,0.288-7.281
			c0.161-2.664,0.394-5.469,0.696-8.416c0.303-2.946,0.731-5.858,1.287-8.734c0.555-2.876,1.251-5.621,2.089-8.234
			c0.837-2.613,1.856-4.914,3.058-6.902c1.201-1.988,2.608-3.567,4.223-4.738c1.614-1.17,3.471-1.756,5.57-1.756
			c1.09,0,1.983,0.162,2.679,0.484c0.696,0.323,1.251,0.777,1.665,1.362c0.414,0.585,0.701,1.287,0.863,2.104
			c0.161,0.817,0.242,1.731,0.242,2.74c0,1.494-0.212,3.148-0.636,4.965s-0.984,3.704-1.68,5.661
			c-0.696,1.958-1.489,3.941-2.376,5.949c-0.888,2.008-1.796,3.956-2.725,5.843c-0.929,1.887-1.842,3.668-2.74,5.343
			c-0.898,1.675-1.69,3.148-2.376,4.42L86.609,46.365z M89.303,27.656c1.19-3.088,2.053-5.691,2.588-7.811
			c0.535-2.119,0.802-3.683,0.802-4.692c0-1.534-0.202-2.301-0.605-2.301c-0.525,0-1.302,0.858-2.331,2.573
			c-1.029,1.716-2.24,4.208-3.633,7.478c-0.343,1.11-0.661,2.261-0.954,3.451c-0.293,1.191-0.555,2.376-0.787,3.557
			c-0.232,1.181-0.444,2.341-0.636,3.481c-0.192,1.141-0.358,2.225-0.5,3.254c-0.343,2.402-0.605,4.753-0.787,7.054
			c0.545-1.271,1.14-2.654,1.786-4.147c0.646-1.493,1.281-2.972,1.907-4.435c0.625-1.463,1.216-2.846,1.771-4.147
			C88.48,29.669,88.94,28.564,89.303,27.656z"/>
		<path fill="#131724" d="M125.783,42.52c0.585,1.171,1.024,2.407,1.317,3.708c0.292,1.302,0.439,2.548,0.439,3.739
			c0,1.191-0.131,2.392-0.394,3.603c-0.263,1.211-0.641,2.381-1.135,3.512c-0.495,1.13-1.1,2.189-1.816,3.178
			c-0.717,0.99-1.534,1.848-2.452,2.574c-0.918,0.727-1.922,1.301-3.012,1.725s-2.25,0.637-3.481,0.637
			c-1.776,0-3.295-0.389-4.556-1.166c-1.262-0.777-2.296-1.791-3.103-3.043c-0.808-1.25-1.398-2.664-1.771-4.238
			c-0.374-1.574-0.56-3.168-0.56-4.783c0-2.219,0.333-4.293,0.999-6.221c0.666-1.927,1.62-3.603,2.861-5.025s2.76-2.543,4.556-3.36
			c1.796-0.817,3.814-1.226,6.055-1.226c1.917,0,3.713,0.298,5.389,0.893c1.675,0.596,3.244,1.393,4.708,2.392
			c1.463,0.999,2.825,2.145,4.087,3.436c1.261,1.292,2.437,2.624,3.527,3.996l-0.575,4.268c-0.545-0.726-1.282-1.513-2.21-2.361
			c-0.929-0.848-1.913-1.675-2.952-2.482c-1.04-0.807-2.064-1.569-3.073-2.286c-1.009-0.716-1.877-1.317-2.604-1.801L125.783,42.52z
			 M116.428,59.383c0.686,0,1.352-0.349,1.998-1.045c0.646-0.696,1.211-1.574,1.695-2.634s0.873-2.229,1.166-3.512
			c0.292-1.281,0.439-2.507,0.439-3.678c0-0.928-0.071-1.791-0.212-2.588c-0.142-0.797-0.354-1.488-0.636-2.074
			c-0.283-0.585-0.646-1.049-1.09-1.393c-0.444-0.343-0.979-0.515-1.604-0.515c-0.828,0-1.615,0.354-2.361,1.06
			c-0.747,0.707-1.403,1.61-1.968,2.709c-0.565,1.1-1.009,2.316-1.332,3.648c-0.323,1.332-0.484,2.614-0.484,3.845
			c0,0.848,0.081,1.645,0.242,2.391c0.161,0.748,0.414,1.398,0.757,1.953c0.343,0.555,0.797,0.999,1.362,1.332
			C114.965,59.216,115.641,59.383,116.428,59.383z"/>
		<path fill="#131724" d="M133.624,58.867c0-1.332,0.081-2.87,0.242-4.616c0.161-1.745,0.363-3.521,0.605-5.328
			c0.242-1.806,0.515-3.547,0.817-5.222c0.303-1.675,0.595-3.108,0.878-4.299c0.222-0.928,0.651-1.705,1.287-2.331
			c0.636-0.625,1.499-0.938,2.588-0.938s1.847,0.333,2.271,0.999s0.636,1.554,0.636,2.664c0,0.303-0.03,0.711-0.091,1.226
			s-0.136,1.08-0.227,1.695c-0.091,0.616-0.187,1.251-0.288,1.907c-0.101,0.656-0.197,1.262-0.288,1.816
			c-0.091,0.555-0.167,1.04-0.227,1.453c-0.061,0.414-0.091,0.691-0.091,0.833h0.605c0.121-0.222,0.313-0.58,0.575-1.075
			c0.262-0.494,0.565-1.064,0.908-1.71c0.343-0.646,0.711-1.327,1.105-2.043c0.394-0.716,0.762-1.402,1.105-2.059
			c0.343-0.656,0.656-1.236,0.938-1.741c0.282-0.504,0.494-0.878,0.636-1.12c0.646-1.09,1.382-1.836,2.21-2.24
			c0.827-0.403,1.746-0.605,2.755-0.605c1.009,0,1.811,0.424,2.407,1.271c0.595,0.848,0.893,2.019,0.893,3.512
			c0,0.222-0.045,0.596-0.136,1.12c-0.091,0.525-0.207,1.15-0.348,1.877c-0.142,0.727-0.298,1.524-0.469,2.392
			c-0.172,0.868-0.328,1.756-0.469,2.664c-0.142,0.908-0.257,1.807-0.348,2.694c-0.091,0.889-0.136,1.706-0.136,2.453
			c0,1.251,0.156,2.28,0.469,3.088c0.313,0.807,0.802,1.211,1.468,1.211c0.303,0,0.651-0.092,1.044-0.273s0.817-0.418,1.271-0.711
			s0.918-0.631,1.393-1.014c0.474-0.384,0.943-0.777,1.408-1.182c1.069-0.947,2.189-2.018,3.36-3.209l0.515,6.781l-1.514,1.15
			c-0.828,0.627-1.67,1.252-2.528,1.877c-0.858,0.627-1.751,1.187-2.679,1.681c-0.929,0.495-1.897,0.898-2.906,1.211
			c-1.009,0.313-2.069,0.47-3.179,0.47c-1.11,0-2.043-0.803-2.8-2.407s-1.135-3.95-1.135-7.038c0-1.211,0.081-2.518,0.242-3.921
			c0.161-1.402,0.363-2.911,0.605-4.526h-0.484l-7.932,15.742c-0.404,0.828-0.858,1.393-1.362,1.695
			c-0.505,0.303-1.09,0.455-1.756,0.455c-0.828,0-1.494-0.177-1.998-0.53c-0.505-0.353-0.893-0.827-1.166-1.423
			s-0.454-1.271-0.545-2.028S133.624,59.676,133.624,58.867z"/>
		<path fill="#131724" d="M171.919,65.195c-1.897,0-3.557-0.344-4.98-1.029c-1.423-0.687-2.609-1.609-3.557-2.771
			c-0.949-1.16-1.66-2.503-2.134-4.026c-0.475-1.523-0.711-3.123-0.711-4.799c0-1.129,0.111-2.325,0.333-3.587
			c0.222-1.261,0.56-2.498,1.014-3.708s1.024-2.366,1.71-3.466c0.686-1.1,1.488-2.068,2.407-2.906
			c0.918-0.837,1.947-1.503,3.088-1.998c1.14-0.494,2.407-0.742,3.799-0.742c1.13,0,2.18,0.182,3.148,0.545s1.811,0.873,2.528,1.529
			c0.716,0.656,1.276,1.448,1.68,2.376c0.403,0.929,0.605,1.968,0.605,3.118c0,1.251-0.308,2.503-0.923,3.754
			c-0.616,1.251-1.468,2.432-2.558,3.542c-1.09,1.109-2.387,2.099-3.89,2.967c-1.504,0.867-3.133,1.543-4.889,2.027
			c0.303,0.545,0.6,1,0.893,1.363c0.292,0.363,0.59,0.646,0.893,0.848c0.303,0.201,0.621,0.343,0.954,0.424
			c0.333,0.08,0.691,0.121,1.075,0.121c1.211,0,2.487-0.242,3.83-0.727c1.342-0.484,2.649-1.09,3.92-1.816s2.472-1.52,3.603-2.377
			c1.13-0.857,2.089-1.67,2.876-2.438l3.905,4.057c-1.776,1.838-3.663,3.462-5.661,4.875c-0.868,0.605-1.801,1.201-2.8,1.785
			c-0.999,0.586-2.049,1.105-3.148,1.56c-1.1,0.454-2.24,0.817-3.421,1.09S173.13,65.195,171.919,65.195z M167.893,50.966
			c0.727,0,1.519-0.187,2.376-0.56c0.857-0.373,1.655-0.853,2.392-1.438c0.736-0.585,1.357-1.221,1.862-1.907
			c0.504-0.686,0.757-1.352,0.757-1.998c0-0.908-0.167-1.655-0.5-2.24c-0.333-0.585-0.742-0.878-1.226-0.878
			c-0.868,0-1.61,0.162-2.225,0.484c-0.616,0.323-1.13,0.742-1.544,1.256c-0.414,0.515-0.747,1.1-0.999,1.756
			c-0.252,0.656-0.444,1.317-0.575,1.983c-0.131,0.666-0.217,1.312-0.257,1.938C167.913,49.988,167.893,50.522,167.893,50.966z"/>
		<path fill="#131724" d="M247.512,62.016c-1.09,0.969-2.226,1.752-3.405,2.347c-1.182,0.596-2.327,0.894-3.437,0.894
			c-0.969,0-1.912-0.197-2.831-0.591c-0.918-0.394-1.73-0.958-2.437-1.695c-0.707-0.736-1.271-1.635-1.695-2.694
			s-0.636-2.256-0.636-3.588c0-1.514,0.212-3.066,0.636-4.662c0.424-1.594,1.009-3.153,1.756-4.677
			c0.746-1.523,1.63-2.961,2.649-4.314c1.019-1.352,2.134-2.533,3.345-3.542c1.211-1.009,2.487-1.811,3.829-2.407
			c1.343-0.595,2.71-0.893,4.103-0.893c0.464,0,0.827,0.091,1.09,0.272c0.262,0.182,0.479,0.389,0.652,0.621
			c0.17,0.232,0.336,0.459,0.498,0.681c0.162,0.222,0.363,0.384,0.605,0.484c0.242,0.101,0.49,0.167,0.742,0.197
			s0.51,0.045,0.771,0.045c0.223,0,0.449-0.005,0.682-0.015c0.232-0.01,0.459-0.015,0.682-0.015c0.303,0,0.584,0.03,0.848,0.091
			c0.262,0.061,0.494,0.192,0.695,0.394c0.201,0.202,0.359,0.484,0.471,0.848c0.109,0.363,0.166,0.858,0.166,1.483
			c0,0.525-0.041,1.231-0.121,2.119c-0.082,0.888-0.193,1.877-0.334,2.967s-0.297,2.246-0.469,3.466
			c-0.172,1.222-0.348,2.417-0.529,3.587c-0.424,2.785-0.908,5.763-1.453,8.932c0.605-0.344,1.26-0.768,1.967-1.271
			c0.707-0.505,1.494-1.182,2.361-2.029s1.836-1.912,2.906-3.193s2.271-2.881,3.604-4.799l1.453,6.721
			c-0.363,0.627-0.832,1.268-1.408,1.923c-0.574,0.656-1.211,1.312-1.906,1.968c-0.697,0.656-1.424,1.292-2.18,1.907
			c-0.758,0.616-1.5,1.196-2.227,1.741c-1.715,1.291-3.563,2.543-5.539,3.754c-0.385,2.158-0.838,4.263-1.363,6.312
			c-0.525,2.048-1.145,3.966-1.862,5.752c-0.716,1.786-1.533,3.426-2.451,4.919c-0.919,1.494-1.958,2.775-3.119,3.846
			c-1.16,1.068-2.457,1.901-3.89,2.497c-1.434,0.595-3.018,0.894-4.753,0.894c-0.687,0-1.428-0.071-2.225-0.213
			c-0.798-0.141-1.534-0.424-2.211-0.848c-0.676-0.424-1.235-1.029-1.68-1.816c-0.443-0.787-0.666-1.836-0.666-3.148
			c0-0.908,0.232-1.932,0.696-3.072c0.465-1.141,1.101-2.342,1.907-3.603c0.807-1.262,1.766-2.573,2.876-3.936
			c1.109-1.362,2.315-2.72,3.618-4.071c1.301-1.354,2.664-2.686,4.086-3.996c1.424-1.313,2.861-2.564,4.314-3.754L247.512,62.016z
			 M236.341,87.477c0.848,0,1.65-0.248,2.406-0.742c0.758-0.494,1.453-1.146,2.09-1.953c0.635-0.807,1.215-1.725,1.74-2.754
			c0.524-1.029,0.988-2.084,1.393-3.164c0.403-1.08,0.746-2.135,1.029-3.164c0.282-1.029,0.504-1.947,0.666-2.754
			c-0.787,0.523-1.59,1.15-2.406,1.877c-0.818,0.727-1.615,1.508-2.393,2.346c-0.776,0.838-1.514,1.7-2.209,2.588
			c-0.697,0.889-1.308,1.741-1.832,2.559c-0.525,0.817-0.938,1.579-1.241,2.285c-0.303,0.707-0.454,1.292-0.454,1.756
			C235.13,87.103,235.534,87.477,236.341,87.477z M240.822,55.387c0,0.504,0.035,0.994,0.105,1.468
			c0.071,0.475,0.197,0.898,0.379,1.271c0.182,0.374,0.424,0.677,0.727,0.908c0.303,0.232,0.686,0.349,1.15,0.349
			c0.746,0,1.423-0.323,2.028-0.969c0.605-0.646,1.13-1.424,1.574-2.332c0.443-0.908,0.802-1.846,1.075-2.814
			c0.271-0.969,0.448-1.776,0.529-2.422l1.847-8.9c-0.828,0-1.635,0.207-2.422,0.621c-0.787,0.414-1.528,0.974-2.226,1.68
			c-0.695,0.707-1.337,1.514-1.922,2.422c-0.586,0.908-1.09,1.862-1.514,2.861s-0.752,2.003-0.984,3.013
			C240.938,53.55,240.822,54.498,240.822,55.387z"/>
		<path fill="#131724" d="M285.748,38.1c0,0.545-0.061,1.287-0.182,2.225s-0.277,1.968-0.469,3.088
			c-0.193,1.12-0.4,2.276-0.621,3.466c-0.223,1.191-0.43,2.301-0.621,3.33c-0.191,1.029-0.348,1.933-0.469,2.709
			c-0.121,0.777-0.182,1.317-0.182,1.62c0,0.564,0.01,1.084,0.029,1.559s0.08,0.889,0.182,1.241
			c0.102,0.354,0.258,0.626,0.471,0.817c0.211,0.191,0.518,0.287,0.922,0.287c0.443,0,0.984-0.11,1.621-0.332
			c0.635-0.223,1.311-0.52,2.027-0.894c0.717-0.373,1.447-0.797,2.195-1.271c0.746-0.474,1.457-0.974,2.135-1.499
			c0.676-0.523,1.291-1.044,1.846-1.559s1.004-0.994,1.348-1.438c0,0.666,0.004,1.271,0.016,1.816
			c0.01,0.545,0.014,1.064,0.014,1.559s0.006,1.004,0.016,1.529c0.01,0.524,0.016,1.109,0.016,1.756
			c-0.445,0.443-0.994,0.918-1.65,1.422c-0.656,0.506-1.383,1.01-2.18,1.514c-0.797,0.506-1.645,0.99-2.543,1.453
			c-0.898,0.465-1.801,0.873-2.709,1.227s-1.807,0.636-2.695,0.848s-1.715,0.318-2.482,0.318s-1.422-0.152-1.967-0.455
			s-1.014-0.727-1.408-1.271c-0.393-0.545-0.727-1.195-0.998-1.952c-0.273-0.757-0.512-1.599-0.713-2.528
			c-0.727,0.949-1.494,1.822-2.301,2.619s-1.629,1.488-2.467,2.074c-0.838,0.585-1.686,1.044-2.543,1.377s-1.691,0.5-2.498,0.5
			c-0.666,0-1.291-0.111-1.877-0.334c-0.586-0.221-1.104-0.595-1.559-1.119c-0.453-0.525-0.813-1.217-1.074-2.074
			c-0.264-0.857-0.395-1.922-0.395-3.193c0-1.555,0.188-3.532,0.561-5.934c0.373-2.402,0.832-5.147,1.377-8.235
			c0.041-0.303,0.117-0.711,0.229-1.226c0.109-0.515,0.262-1.075,0.453-1.68s0.428-1.221,0.711-1.847
			c0.283-0.625,0.615-1.19,1-1.695c0.383-0.504,0.832-0.918,1.348-1.241c0.514-0.323,1.094-0.494,1.74-0.515
			c1.068,0.041,1.836,0.177,2.301,0.409c0.463,0.232,0.695,0.52,0.695,0.863c-0.182,1.07-0.377,2.261-0.59,3.572
			c-0.211,1.312-0.43,2.634-0.65,3.966c-0.223,1.332-0.436,2.629-0.637,3.89c-0.201,1.262-0.383,2.387-0.545,3.376
			c-0.162,0.988-0.287,1.785-0.377,2.391c-0.092,0.605-0.137,0.919-0.137,0.939c0,0.363,0.035,0.711,0.105,1.044
			s0.176,0.631,0.318,0.894c0.141,0.262,0.322,0.475,0.545,0.635c0.221,0.162,0.484,0.242,0.787,0.242
			c0.443,0,0.896-0.115,1.361-0.348s0.904-0.564,1.318-0.999c0.412-0.434,0.781-0.969,1.104-1.604s0.564-1.357,0.727-2.164
			l2.998-15.379c0.1-0.484,0.51-0.893,1.227-1.226c0.715-0.333,1.527-0.5,2.436-0.5c1.029,0,1.848,0.182,2.453,0.545
			S285.748,37.535,285.748,38.1z"/>
		<path fill="#131724" d="M323.893,57.777c-0.465,0.646-1.086,1.403-1.861,2.271c-0.777,0.867-1.65,1.695-2.619,2.482
			s-2.01,1.453-3.119,1.998s-2.221,0.816-3.33,0.816c-1.332,0-2.441-0.428-3.33-1.286c-0.889-0.857-1.654-2.104-2.301-3.739
			c-0.484,0.566-1.08,1.141-1.785,1.727c-0.707,0.585-1.479,1.115-2.316,1.589c-0.838,0.475-1.711,0.862-2.619,1.165
			s-1.816,0.455-2.725,0.455c-0.969,0-1.912-0.197-2.83-0.591s-1.73-0.958-2.438-1.695c-0.707-0.736-1.271-1.635-1.695-2.694
			s-0.635-2.256-0.635-3.588c0-1.514,0.211-3.066,0.635-4.662c0.424-1.594,1.01-3.153,1.756-4.677
			c0.746-1.523,1.631-2.961,2.65-4.314c1.018-1.352,2.133-2.533,3.344-3.542c1.211-1.009,2.488-1.811,3.83-2.407
			c1.342-0.595,2.709-0.893,4.102-0.893c0.465,0,0.828,0.091,1.09,0.272s0.48,0.389,0.652,0.621c0.17,0.232,0.336,0.459,0.498,0.681
			c0.162,0.222,0.363,0.384,0.605,0.484c0.242,0.101,0.49,0.167,0.742,0.197s0.51,0.045,0.771,0.045
			c0.223,0,0.449-0.005,0.682-0.015c0.232-0.01,0.459-0.015,0.682-0.015c0.303,0,0.584,0.03,0.848,0.091
			c0.262,0.061,0.494,0.192,0.695,0.394c0.201,0.202,0.359,0.484,0.471,0.848c0.109,0.363,0.166,0.858,0.166,1.483
			c0,0.969-0.102,2.043-0.303,3.224c-0.203,1.181-0.424,2.392-0.666,3.633s-0.465,2.482-0.666,3.724
			c-0.203,1.241-0.303,2.417-0.303,3.527c0,0.948,0.086,1.689,0.258,2.225c0.17,0.535,0.539,0.803,1.104,0.803
			c0.424,0,0.867-0.106,1.332-0.318s0.934-0.489,1.408-0.832c0.475-0.344,0.949-0.732,1.424-1.166
			c0.473-0.434,0.922-0.883,1.346-1.348c0.988-1.09,1.988-2.32,2.998-3.693L323.893,57.777z M298.039,55.387
			c0,0.504,0.035,0.994,0.105,1.468c0.07,0.475,0.197,0.898,0.379,1.271c0.182,0.374,0.424,0.677,0.727,0.908
			c0.303,0.232,0.686,0.349,1.15,0.349c0.746,0,1.422-0.323,2.027-0.969c0.605-0.646,1.131-1.424,1.574-2.332
			s0.803-1.846,1.076-2.814c0.271-0.969,0.447-1.776,0.529-2.422l1.846-8.9c-0.828,0-1.635,0.207-2.422,0.621
			c-0.787,0.414-1.527,0.974-2.225,1.68c-0.695,0.707-1.338,1.514-1.922,2.422c-0.586,0.908-1.09,1.862-1.514,2.861
			s-0.752,2.003-0.984,3.013C298.154,53.55,298.039,54.498,298.039,55.387z"/>
		<path fill="#131724" d="M320.32,58.867c0-0.887,0.049-1.922,0.15-3.103s0.238-2.427,0.41-3.739
			c0.17-1.311,0.373-2.648,0.605-4.011c0.23-1.362,0.479-2.659,0.74-3.89c0.262-1.231,0.525-2.361,0.787-3.391
			s0.525-1.877,0.787-2.543c0.162-0.444,0.322-0.797,0.484-1.06c0.162-0.262,0.35-0.469,0.561-0.621
			c0.213-0.151,0.475-0.252,0.787-0.303c0.313-0.05,0.701-0.076,1.166-0.076c0.523,0,0.934,0.025,1.227,0.076
			c0.291,0.051,0.508,0.172,0.65,0.363c0.141,0.192,0.227,0.469,0.258,0.833c0.029,0.363,0.045,0.858,0.045,1.483
			c0,0.747,0,1.65,0,2.709s0.02,2.104,0.061,3.133h0.332c0.404-0.807,0.857-1.71,1.363-2.709c0.504-0.999,1.09-1.932,1.756-2.8
			c0.666-0.868,1.422-1.599,2.27-2.195c0.848-0.595,1.826-0.893,2.938-0.893c0.383,0,0.756,0.066,1.119,0.197
			c0.363,0.131,0.682,0.318,0.955,0.56c0.271,0.242,0.488,0.54,0.65,0.893c0.16,0.354,0.242,0.752,0.242,1.196
			c0,0.343-0.051,0.823-0.152,1.438c-0.102,0.616-0.211,1.262-0.332,1.938c-0.121,0.676-0.232,1.332-0.334,1.968
			s-0.15,1.166-0.15,1.589c0,0.727,0.07,1.332,0.211,1.816s0.328,0.873,0.561,1.166c0.232,0.293,0.494,0.5,0.787,0.621
			s0.6,0.182,0.924,0.182c0.908,0,1.846-0.202,2.814-0.605c0.969-0.403,1.857-0.857,2.664-1.362
			c0.949-0.585,1.877-1.251,2.785-1.998l-0.453,7.083c-0.525,0.344-1.121,0.727-1.787,1.15s-1.377,0.823-2.133,1.196
			c-0.758,0.374-1.545,0.687-2.361,0.938c-0.818,0.252-1.65,0.379-2.498,0.379c-1.514,0-2.736-0.309-3.664-0.924
			s-1.664-1.423-2.209-2.422s-0.949-2.119-1.211-3.36c-0.264-1.241-0.475-2.498-0.637-3.769h-0.484l-5.418,15.106
			c-0.283,0.787-0.551,1.438-0.803,1.953s-0.51,0.934-0.771,1.256c-0.264,0.324-0.545,0.551-0.848,0.682s-0.637,0.197-1,0.197
			c-0.828,0-1.494-0.177-1.998-0.53c-0.504-0.353-0.893-0.827-1.164-1.423c-0.273-0.596-0.455-1.271-0.545-2.028
			C320.365,60.457,320.32,59.676,320.32,58.867z"/>
		<path fill="#131724" d="M380.625,59.262c-1.434,1.109-2.846,2.099-4.238,2.967c-0.586,0.363-1.201,0.721-1.848,1.074
			s-1.281,0.666-1.906,0.938c-0.627,0.272-1.236,0.495-1.832,0.666c-0.596,0.172-1.146,0.257-1.65,0.257
			c-0.283,0-0.701-0.061-1.256-0.182s-1.16-0.367-1.816-0.741c-0.656-0.373-1.313-0.913-1.967-1.62
			c-0.656-0.705-1.227-1.645-1.711-2.814c-0.748,0.727-1.539,1.418-2.377,2.073c-0.838,0.656-1.705,1.226-2.604,1.71
			s-1.807,0.873-2.725,1.166s-1.842,0.439-2.77,0.439c-1.313,0-2.447-0.283-3.406-0.848c-0.959-0.565-1.756-1.317-2.391-2.256
			c-0.637-0.938-1.111-2.003-1.424-3.193c-0.313-1.191-0.469-2.422-0.469-3.693c0-1.292,0.166-2.599,0.5-3.921
			c0.332-1.322,0.816-2.604,1.453-3.845c0.635-1.241,1.406-2.412,2.314-3.512c0.908-1.1,1.938-2.079,3.088-2.937
			c1.15-0.857,2.402-1.569,3.754-2.134c1.352-0.565,2.795-0.918,4.33-1.06c0.061-2.583,0.291-5.136,0.695-7.659
			c0.404-2.522,0.939-4.924,1.605-7.205c0.666-2.28,1.447-4.39,2.346-6.327s1.881-3.612,2.951-5.025
			c1.07-1.413,2.211-2.518,3.422-3.315c1.211-0.797,2.461-1.196,3.754-1.196c0.947,0,1.756,0.248,2.422,0.742
			c0.666,0.495,1.205,1.15,1.619,1.968s0.711,1.766,0.893,2.846c0.182,1.08,0.273,2.195,0.273,3.345c0,0.707-0.031,1.433-0.092,2.18
			c-0.262,2.846-0.746,5.535-1.453,8.068c-0.707,2.533-1.533,5-2.482,7.402c-0.949,2.402-1.979,4.783-3.088,7.145
			s-2.189,4.813-3.238,7.356c-0.102,0.283-0.203,0.626-0.303,1.029c-0.102,0.404-0.197,0.843-0.287,1.317
			c-0.092,0.475-0.168,0.959-0.229,1.453s-0.09,0.975-0.09,1.438c0,0.586,0.035,1.141,0.105,1.666
			c0.07,0.524,0.186,0.994,0.348,1.407c0.162,0.414,0.379,0.741,0.652,0.983c0.271,0.242,0.609,0.363,1.014,0.363
			c0.383,0,0.803-0.075,1.256-0.227c0.455-0.151,0.934-0.357,1.438-0.621c0.504-0.262,1.016-0.56,1.529-0.893
			c0.516-0.333,1.014-0.671,1.498-1.014c1.109-0.808,2.271-1.727,3.482-2.756L380.625,59.262z M359.797,42.308
			c-1.332,0.646-2.518,1.499-3.557,2.558c-1.041,1.06-1.908,2.205-2.604,3.436c-0.697,1.231-1.227,2.473-1.59,3.723
			c-0.363,1.252-0.545,2.383-0.545,3.391c0,0.404,0.045,0.809,0.137,1.211c0.09,0.404,0.256,0.768,0.498,1.09
			c0.242,0.324,0.586,0.586,1.029,0.787c0.443,0.203,1.02,0.303,1.727,0.303c0.363,0,0.721-0.09,1.074-0.271
			s0.691-0.419,1.014-0.712c0.322-0.292,0.631-0.626,0.924-0.999s0.561-0.762,0.803-1.166c0.564-0.928,1.078-1.977,1.543-3.148
			c-0.061-0.281-0.111-0.73-0.15-1.347c-0.041-0.615-0.072-1.302-0.092-2.059s-0.041-1.539-0.061-2.346
			c-0.02-0.807-0.035-1.544-0.045-2.21s-0.025-1.211-0.045-1.635C359.836,42.49,359.816,42.288,359.797,42.308z M374.025,20.36
			c0.121-1.413,0.182-2.533,0.182-3.36c0-1.09-0.096-1.847-0.287-2.271c-0.193-0.424-0.471-0.636-0.834-0.636
			c-0.646,0-1.23,0.409-1.756,1.226s-0.988,1.862-1.393,3.133s-0.756,2.674-1.059,4.208c-0.303,1.534-0.557,3.018-0.758,4.45
			c-0.201,1.433-0.363,2.725-0.484,3.875s-0.201,1.968-0.242,2.452c-0.08,0.989-0.146,1.943-0.195,2.861
			c-0.051,0.918-0.088,1.756-0.107,2.513s-0.029,1.418-0.029,1.983c0,0.565,0,0.999,0,1.302v0.303
			c1.15-2.624,2.209-5.237,3.178-7.841c0.404-1.11,0.813-2.275,1.227-3.497c0.414-1.221,0.791-2.447,1.135-3.678
			c0.344-1.231,0.641-2.442,0.895-3.633C373.748,22.56,373.924,21.43,374.025,20.36z"/>
		<path fill="#131724" d="M397.336,58.746c-0.727,0.666-1.631,1.378-2.709,2.135c-1.08,0.757-2.246,1.453-3.498,2.089
			s-2.527,1.165-3.828,1.589c-1.303,0.424-2.539,0.637-3.709,0.637c-1.051,0-1.934-0.146-2.648-0.439
			c-0.717-0.293-1.299-0.701-1.742-1.227c-0.443-0.523-0.762-1.165-0.953-1.922s-0.287-1.59-0.287-2.498
			c0-1.271,0.146-2.749,0.439-4.435c0.291-1.685,0.65-3.431,1.074-5.237c0.424-1.806,0.873-3.607,1.348-5.404
			c0.473-1.796,0.893-3.451,1.256-4.965c0.141-0.524,0.424-0.974,0.848-1.347c0.424-0.373,0.902-0.676,1.438-0.908
			c0.535-0.232,1.09-0.403,1.666-0.515c0.574-0.111,1.094-0.167,1.559-0.167c0.848,0,1.422,0.157,1.725,0.469
			c0.303,0.313,0.455,0.732,0.455,1.256c0,0.444-0.102,1.085-0.303,1.922c-0.203,0.838-0.455,1.786-0.758,2.846
			s-0.625,2.2-0.969,3.421c-0.344,1.221-0.666,2.442-0.969,3.663c-0.303,1.221-0.555,2.412-0.756,3.572
			c-0.203,1.161-0.303,2.205-0.303,3.134c0,0.908,0.1,1.629,0.303,2.164c0.201,0.535,0.615,0.803,1.24,0.803
			c0.727,0,1.533-0.252,2.422-0.758c0.889-0.504,1.787-1.114,2.695-1.831c0.908-0.716,1.795-1.458,2.664-2.226
			c0.867-0.766,1.635-1.422,2.301-1.967V58.746z M383.803,27.625c0-0.464,0.102-0.989,0.303-1.574
			c0.201-0.585,0.531-1.135,0.984-1.65c0.455-0.515,1.061-0.948,1.816-1.302c0.758-0.353,1.699-0.53,2.83-0.53
			c0.707,0,1.373,0.081,1.998,0.242c0.625,0.162,1.17,0.409,1.635,0.742s0.834,0.772,1.105,1.317
			c0.273,0.545,0.408,1.191,0.408,1.938c0,0.687-0.111,1.353-0.332,1.998c-0.223,0.646-0.576,1.221-1.061,1.726
			c-0.484,0.505-1.094,0.914-1.83,1.226c-0.738,0.313-1.621,0.469-2.65,0.469c-1.775,0-3.088-0.418-3.936-1.256
			C384.227,30.133,383.803,29.018,383.803,27.625z"/>
		<path fill="#131724" d="M426.852,57.777c-0.465,0.646-1.084,1.403-1.861,2.271c-0.777,0.867-1.65,1.695-2.619,2.482
			s-2.008,1.453-3.117,1.998c-1.111,0.545-2.221,0.816-3.33,0.816c-1.332,0-2.443-0.428-3.33-1.286
			c-0.889-0.857-1.656-2.104-2.301-3.739c-0.484,0.566-1.08,1.141-1.787,1.727c-0.707,0.585-1.479,1.115-2.314,1.589
			c-0.838,0.475-1.711,0.862-2.619,1.165s-1.816,0.455-2.725,0.455c-0.969,0-1.912-0.197-2.83-0.591
			c-0.92-0.394-1.732-0.958-2.438-1.695c-0.707-0.736-1.271-1.635-1.695-2.694s-0.637-2.256-0.637-3.588
			c0-1.514,0.213-3.066,0.637-4.662c0.424-1.594,1.008-3.153,1.756-4.677c0.746-1.523,1.629-2.961,2.648-4.314
			c1.02-1.352,2.135-2.533,3.346-3.542c1.211-1.009,2.486-1.811,3.83-2.407c1.342-0.595,2.709-0.893,4.102-0.893
			c0.463,0,0.826,0.091,1.09,0.272c0.262,0.182,0.479,0.389,0.65,0.621c0.172,0.232,0.338,0.459,0.5,0.681
			c0.16,0.222,0.363,0.384,0.605,0.484c0.242,0.101,0.488,0.167,0.742,0.197c0.252,0.03,0.508,0.045,0.771,0.045
			c0.221,0,0.449-0.005,0.682-0.015c0.23-0.01,0.457-0.015,0.68-0.015c0.303,0,0.586,0.03,0.848,0.091s0.494,0.192,0.697,0.394
			c0.201,0.202,0.357,0.484,0.469,0.848s0.166,0.858,0.166,1.483c0,0.969-0.102,2.043-0.303,3.224s-0.424,2.392-0.666,3.633
			s-0.465,2.482-0.666,3.724s-0.303,2.417-0.303,3.527c0,0.948,0.086,1.689,0.258,2.225s0.539,0.803,1.105,0.803
			c0.424,0,0.867-0.106,1.332-0.318c0.463-0.212,0.934-0.489,1.408-0.832c0.473-0.344,0.947-0.732,1.422-1.166
			s0.924-0.883,1.348-1.348c0.988-1.09,1.986-2.32,2.996-3.693L426.852,57.777z M400.998,55.387c0,0.504,0.035,0.994,0.107,1.468
			c0.07,0.475,0.195,0.898,0.377,1.271c0.182,0.374,0.424,0.677,0.727,0.908c0.303,0.232,0.686,0.349,1.15,0.349
			c0.746,0,1.424-0.323,2.029-0.969c0.605-0.646,1.129-1.424,1.574-2.332c0.443-0.908,0.803-1.846,1.074-2.814
			c0.273-0.969,0.449-1.776,0.529-2.422l1.848-8.9c-0.828,0-1.635,0.207-2.422,0.621c-0.787,0.414-1.529,0.974-2.225,1.68
			c-0.697,0.707-1.338,1.514-1.924,2.422s-1.09,1.862-1.514,2.861s-0.752,2.003-0.982,3.013
			C401.115,53.55,400.998,54.498,400.998,55.387z"/>
		<path fill="#131724" d="M423.279,58.867c0-1.332,0.08-2.87,0.242-4.616c0.162-1.745,0.363-3.521,0.605-5.328
			c0.242-1.806,0.516-3.547,0.818-5.222c0.303-1.675,0.594-3.108,0.877-4.299c0.223-0.928,0.652-1.705,1.287-2.331
			c0.637-0.625,1.498-0.938,2.588-0.938s1.848,0.333,2.271,0.999s0.635,1.554,0.635,2.664c0,0.303-0.029,0.711-0.09,1.226
			s-0.137,1.08-0.227,1.695c-0.092,0.616-0.188,1.251-0.289,1.907c-0.102,0.656-0.195,1.262-0.287,1.816
			c-0.09,0.555-0.166,1.04-0.227,1.453c-0.061,0.414-0.092,0.691-0.092,0.833h0.605c0.121-0.222,0.313-0.58,0.576-1.075
			c0.262-0.494,0.564-1.064,0.908-1.71c0.342-0.646,0.711-1.327,1.105-2.043c0.393-0.716,0.76-1.402,1.104-2.059
			c0.344-0.656,0.656-1.236,0.939-1.741c0.281-0.504,0.494-0.878,0.635-1.12c0.646-1.09,1.383-1.836,2.211-2.24
			c0.826-0.403,1.744-0.605,2.754-0.605s1.813,0.424,2.408,1.271c0.594,0.848,0.893,2.019,0.893,3.512
			c0,0.222-0.045,0.596-0.137,1.12c-0.09,0.525-0.207,1.15-0.348,1.877c-0.143,0.727-0.299,1.524-0.469,2.392
			c-0.172,0.868-0.33,1.756-0.471,2.664s-0.256,1.807-0.348,2.694c-0.09,0.889-0.137,1.706-0.137,2.453
			c0,1.251,0.156,2.28,0.471,3.088c0.313,0.807,0.801,1.211,1.467,1.211c0.303,0,0.652-0.092,1.045-0.273
			c0.395-0.182,0.818-0.418,1.271-0.711c0.455-0.293,0.918-0.631,1.393-1.014c0.475-0.384,0.943-0.777,1.408-1.182
			c1.068-0.947,2.189-2.018,3.359-3.209l0.516,6.781l-1.514,1.15c-0.828,0.627-1.67,1.252-2.527,1.877
			c-0.859,0.627-1.752,1.187-2.68,1.681c-0.93,0.495-1.898,0.898-2.906,1.211c-1.01,0.313-2.07,0.47-3.18,0.47
			s-2.043-0.803-2.799-2.407c-0.758-1.604-1.137-3.95-1.137-7.038c0-1.211,0.08-2.518,0.242-3.921
			c0.162-1.402,0.363-2.911,0.605-4.526h-0.484l-7.932,15.742c-0.404,0.828-0.857,1.393-1.361,1.695
			c-0.506,0.303-1.09,0.455-1.756,0.455c-0.828,0-1.494-0.177-1.998-0.53c-0.506-0.353-0.893-0.827-1.166-1.423
			c-0.271-0.596-0.453-1.271-0.545-2.028C423.326,60.457,423.279,59.676,423.279,58.867z"/>
	</g>
</g>
</svg>
