<?xml version="1.0" encoding="utf-8"?>
<!-- Generator: Adobe Illustrator 16.0.0, SVG Export Plug-In . SVG Version: 6.00 Build 0)  -->
<!DOCTYPE svg PUBLIC "-//W3C//DTD SVG 1.1//EN" "http://www.w3.org/Graphics/SVG/1.1/DTD/svg11.dtd">
<svg version="1.1" id="Layer_3" xmlns="http://www.w3.org/2000/svg" xmlns:xlink="http://www.w3.org/1999/xlink" x="0px" y="0px"
	 width="100px" height="100px" viewBox="0 0 100 100" enable-background="new 0 0 100 100" xml:space="preserve">
<g>
	<path stroke="#000000" stroke-width="0.75" stroke-miterlimit="10" d="M81.537,33.773c-0.658,0-1.096,0.437-1.096,1.094v37.539
		c0,6.348-5.143,11.379-11.492,11.379H31.415c-6.349,0-11.492-5.143-11.492-11.488V34.868c0-6.348,5.144-11.491,11.492-11.491
		h37.535c1.753,0,3.396,0.328,4.926,1.093c0.548,0.219,1.203,0,1.424-0.548c0.219-0.545,0-1.203-0.547-1.421
		c-1.858-0.875-3.831-1.314-5.803-1.314H31.415c-7.553,0-13.682,6.129-13.682,13.681v37.539c0,7.553,6.129,13.68,13.682,13.68
		h37.535c7.553,0,13.683-6.127,13.683-13.68V34.868C82.632,34.21,82.084,33.773,81.537,33.773z"/>
	<path stroke="#000000" stroke-width="0.75" stroke-miterlimit="10" d="M17.732,34.868v37.539c0,7.553,6.13,13.68,13.683,13.68
		H68.95c7.553,0,13.682-6.127,13.682-13.68V34.868c0-7.551-6.129-13.681-13.682-13.681H31.415c-1.972,0-3.944,0.438-5.803,1.314
		c-0.547,0.219-0.766,0.876-0.547,1.421c0.221,0.548,0.876,0.767,1.424,0.548c1.53-0.765,3.173-1.093,4.926-1.093H68.95
		c6.348,0,11.492,5.143,11.492,11.491v37.429c0,6.346-5.145,11.488-11.492,11.488H31.415c-6.35,0-11.492-5.031-11.492-11.379V34.868
		c0-0.658-0.438-1.094-1.096-1.094C18.28,33.773,17.732,34.21,17.732,34.868z"/>
</g>
</svg>
